<svg width="74" height="70" viewBox="0 0 74 70" fill="none" xmlns="http://www.w3.org/2000/svg">
<path d="M24.1448 62.6114C23.2901 68.4828 18.7475 70.9092 13.3769 68.581C11.7744 67.8871 11.0073 66.6594 10.8802 64.9226C10.7969 63.7974 11.1046 62.621 10.1046 61.6133C8.93583 60.439 8.82258 59.0512 10.2178 57.8887C11.7018 56.66 12.9186 57.6592 14.0489 58.5505C15.3844 59.6021 15.8352 61.0603 15.7487 62.7342C15.7017 63.664 16.1258 64.139 17.1525 64.1358C18.1791 64.1326 18.6877 63.933 18.9911 62.7267C20.3799 57.2055 21.2346 56.6696 26.7238 58.1449C28.0539 58.5036 28.2985 57.8631 28.7942 57.1425C29.3113 56.3888 29.166 55.8988 28.4897 55.1718C24.4161 50.795 24.4129 50.7267 28.5015 46.2164C29.2023 45.4425 29.1329 44.9802 28.7152 44.2212C28.2045 43.2701 27.6703 42.8078 26.5924 43.5305C24.6106 44.8585 22.6491 44.7347 20.8329 43.1825C19.4804 42.0243 19.3671 40.6002 20.7015 39.475C24.0999 36.6098 30.6542 37.8823 32.9661 41.7435C35.6284 46.1887 35.3742 47.3683 31.0484 50.6669C35.419 54.1694 35.6199 55.0032 33.1456 59.3715C30.37 64.265 29.5143 64.6013 24.1448 62.6114Z" fill="#E1DEE3"/>
<path d="M43.0545 50.7523C38.3538 47.2049 38.6519 41.6848 43.6026 38.4032C44.9145 37.5332 46.2168 37.4723 47.6783 38.1331C48.5928 38.5473 49.3877 39.3693 50.5735 39.1238C52.5051 38.7235 54.3074 39.1515 54.0692 41.4392C53.8309 43.7269 51.7509 44.4176 49.6601 44.408C48.9315 44.408 48.1463 43.981 47.4924 43.5753C46.5064 42.9658 45.9049 43.0544 45.3152 44.1208C44.7906 45.0709 44.8301 45.5086 45.7222 46.3509C49.5415 49.9805 49.5084 51.1494 45.5854 55.1046C44.7233 55.9725 44.8088 56.456 45.3194 57.3816C45.9102 58.4491 46.4807 58.3306 47.5042 58.0136C52.1333 56.5799 54.332 57.7168 54.9399 62.2121C55.2059 64.1796 56.1022 64.1486 57.4889 64.1337C59.318 64.1134 61.5326 63.8668 61.3799 66.637C61.2346 69.2951 59.021 68.9215 57.2133 68.9492C51.3374 69.0389 50.6964 68.5019 49.877 62.9092C43.8184 64.297 42.8505 63.7376 40.0333 58.0573C38.2107 54.3808 40.326 52.4795 43.0545 50.7523Z" fill="#E1DEE3"/>
<path d="M63.3252 39.0416C68.7321 36.8948 69.8902 37.3763 72.8335 42.7064C74.8292 46.3146 74.4093 47.617 70.2962 50.6061C74.8441 54.3424 74.7618 59.0341 70.1007 62.842C68.7407 63.9533 67.2663 63.9746 65.682 63.4729C64.7205 63.1665 63.9833 62.1673 62.8188 62.4748C60.8082 63.0085 59.1234 62.3883 59.2046 60.2554C59.2933 57.9068 61.3413 57.1884 63.4598 57.2033C64.1916 57.2033 64.9844 57.5545 65.635 57.9378C66.8102 58.6285 67.4512 58.3189 68.1018 57.1852C68.7214 56.1049 68.2385 55.6907 67.4811 54.9829C63.854 51.5722 63.8188 49.6816 67.3999 46.4321C68.2001 45.7061 68.6563 45.3453 68.0655 44.265C67.3977 43.0427 66.7888 43.1975 65.5944 43.6458C61.6052 45.151 58.7388 43.6458 58.3595 39.5658C58.1459 37.3133 57.0903 37.4798 55.6203 37.5247C53.8586 37.5791 51.9516 37.5578 51.8896 35.1761C51.8181 32.407 54.0103 32.7379 55.8233 32.7005C62.1629 32.5735 62.712 33.0293 63.3252 39.0416Z" fill="#E1DEE3"/>
<path d="M43.8023 29.7574C42.9123 35.9362 42.4786 36.2746 35.888 36.1315C31.434 36.0344 30.8379 35.3768 30.3518 30.0178C24.4439 31.7045 22.726 30.8035 20.2592 25.0966C19.5391 23.4334 19.8019 22.273 21.2719 21.467C22.7206 20.6674 23.9001 21.4296 24.4909 22.7192C25.65 25.2535 26.8808 25.657 29.7482 24.6311C32.402 23.681 34.6284 25.7798 35.3239 28.7379C35.5846 29.8492 34.8004 31.4206 37.0888 31.3576C39.1432 31.301 38.4253 29.9346 38.6219 28.9236C39.3067 25.4008 42.1837 23.7451 45.5554 24.9845C46.6238 25.3773 47.4571 26.2378 48.3951 24.582C49.3459 22.9028 48.159 22.5537 47.2381 21.925C45.8182 20.9589 45.0651 19.5764 45.2082 17.9282C45.3941 15.7878 46.7883 14.7502 48.7519 15.6864C54.6396 18.4801 55.4569 25.4713 50.644 29.9709C48.2637 32.1913 46.0629 30.6477 43.8023 29.7574Z" fill="#E1DEE3"/>
<path d="M30.26 6.27301C30.9352 0.791287 31.7931 0.0119973 36.8966 0.000254593C42.125 -0.0114881 43.0128 0.747519 43.734 6.13209C45.7638 5.71896 47.8621 4.26393 49.9101 5.61328C51.8406 6.8847 52.5136 9.1361 53.6739 11.0043C54.5125 12.3515 54.3245 13.6005 53.0681 14.4203C51.6119 15.3736 50.284 14.889 49.4582 13.3848C48.3503 11.3683 47.5544 9.8065 44.5587 11.4174C42.1015 12.7368 39.3623 10.3883 38.6519 6.92099C38.4222 5.79476 38.4318 4.97063 36.9222 4.98771C35.3122 5.00586 35.544 6.02214 35.34 7.05443C34.5419 11.1035 32.2044 12.4988 28.2772 11.2274C27.2441 10.8943 26.5037 10.3125 25.6458 11.5861C24.5219 13.2557 25.961 13.5353 26.8082 14.2207C27.7376 14.968 28.5229 15.8497 28.6756 17.103C28.8829 18.811 28.1297 20.012 26.4321 20.1433C23.1128 20.4006 18.9473 13.8065 20.427 10.7854C23.2239 5.08379 24.5561 4.44648 30.26 6.27301Z" fill="#E1DEE3"/>
<path d="M3.83866 50.6157C0.479784 48.6941 -1.13876 46.5153 1.04066 42.8345C4.11857 37.6346 5.18371 37.0955 10.6451 39.1494C11.1194 37.2514 10.4592 34.8794 12.5008 33.5983C14.6877 32.2287 17.0947 32.9749 19.4077 32.8436C21.117 32.7465 22.1928 33.5909 22.1148 35.4056C22.0454 37.0326 20.9247 37.7873 19.46 37.6047C16.756 37.2674 15.7048 38.0659 15.4163 41.0112C15.146 43.7718 11.7391 45.0454 8.94215 44.1294C8.01375 43.8252 7.13985 42.4214 6.01702 44.1647C4.97965 45.7787 6.17941 46.1129 7.02126 46.8794C9.90579 49.5108 9.98699 52.281 7.00203 54.779C5.76916 55.8081 5.30977 56.4315 6.28517 57.8748C7.30758 59.3896 8.46139 61.3101 6.18582 62.5858C3.95297 63.8284 3.00321 61.9068 2.0385 60.2789C-0.968892 55.2017 -0.872741 54.4652 3.83866 50.6157Z" fill="#E1DEE3"/>
<path d="M41.8408 17.7841C41.7169 20.7635 40.2928 22.5335 37.3623 22.8292C34.5312 23.1142 32.2599 21.0272 32.1723 18.2207C32.0847 15.3939 34.2022 13.1265 37.0034 13.2183C39.9445 13.3143 41.4808 14.9925 41.8408 17.7841Z" fill="#E1DEE3"/>
<path d="M17.2859 55.632C14.4986 55.6021 12.3374 53.3528 12.5414 50.5378C12.7551 47.5914 14.473 45.9805 17.3928 46.0126C20.3126 46.0446 21.9867 47.695 22.1394 50.6435C22.2826 53.4638 20.085 55.6619 17.2859 55.632Z" fill="#E1DEE3"/>
<path d="M61.4417 50.1374C61.5111 53.4852 59.3584 55.7568 56.5679 55.6085C53.6705 55.4558 51.9836 53.8631 51.8426 50.9114C51.7059 48.0611 53.8564 45.8812 56.7068 45.9912C59.6543 46.1033 61.1821 47.7707 61.4417 50.1374Z" fill="#E1DEE3"/>
</svg>
