<svg width="70" height="69" viewBox="0 0 70 69" fill="none" xmlns="http://www.w3.org/2000/svg">
<path d="M69.0141 23.7931C68.6124 35.8163 66.4838 47.5326 61.36 58.4456C58.9388 63.6095 55.7429 69 48.9868 69C42.1016 69 38.1885 64.2837 35.5033 58.5259C33.6328 54.5096 32.2988 50.2694 31.9288 45.8342C31.6677 42.6986 30.6148 40.4294 27.8292 38.556C22.6625 35.0647 19.3174 30.0442 18.0551 23.8619C17.5904 21.5841 17.1055 18.7812 20.3502 18.1243C23.417 17.4989 23.7354 20.0521 24.2948 22.264C26.0563 29.1951 30.0153 33.5815 34.4304 33.6733C39.0205 33.768 43.0598 29.3873 44.893 22.1291C45.4668 19.8656 45.9172 17.4501 48.9466 18.1329C51.8757 18.7927 51.586 21.3918 51.1671 23.5607C49.945 29.9295 46.5454 35.0532 41.2238 38.6335C38.5787 40.4122 37.7582 42.4835 38.3119 45.3265C39.3791 50.8432 40.5668 56.3399 44.9274 60.4079C48.1491 63.4115 50.2663 63.2566 52.9888 59.7825C53.7859 58.7258 54.4714 57.5895 55.0343 56.3915C60.465 45.3437 62.4244 33.5098 62.6998 21.3431C62.7457 19.3349 62.2178 17.2521 61.6928 15.2755C59.8797 8.45632 55.9896 5.40102 49.0298 6.66904C39.4771 8.42333 29.6848 8.42333 20.1322 6.66904C13.1724 5.4125 9.25071 8.46206 7.45769 15.2755C4.79829 25.4139 7.65851 35.1106 10.1286 44.7929C10.8142 47.4838 13.838 47.3978 15.7543 48.6313C19.2199 50.8633 21.0846 55.1665 20.0805 58.9046C18.933 63.1705 14.9482 66.3808 10.7884 66.4066C6.92122 66.4295 2.82167 63.5578 1.66266 59.9202C0.971278 57.7456 0.391775 55.33 3.07986 54.1825C5.66181 53.0866 6.70893 55.1063 7.59253 57.1116C8.2753 58.6608 9.2421 60.0751 11.2302 59.5501C12.5671 59.2001 13.7347 58.1903 13.5884 56.7214C13.3876 54.6817 11.9273 53.5829 9.9048 53.7665C7.41753 53.9874 5.85402 52.8342 5.16263 50.6883C1.51349 39.4253 -1.37255 27.9328 0.687264 16.0329C2.86757 3.41292 9.75275 -1.58744 22.2723 0.435084C30.3786 1.78559 38.652 1.79238 46.7606 0.455166C59.9945 -1.72227 67.9899 5.24037 68.9968 18.9333C69.1145 20.5484 69.0141 22.175 69.0141 23.7931Z" fill="#E1DEE3"/>
</svg>
