<svg xmlns="http://www.w3.org/2000/svg" viewBox="0 0 720.38 1060.82"><defs><style>.cls-1{fill:#095a88;}</style></defs><title>Recurso 1</title><g id="Capa_2" data-name="Capa 2"><g id="Capa_1-2" data-name="Capa 1"><path class="cls-1" d="M0,538.62c1.05-54.14,10.1-103.56,31.4-150.33a368.71,368.71,0,0,1,57.67-89.81A353,353,0,0,1,214.26,206.4c10.12-4.47,20.54-8.27,30.91-12.12,9.63-3.58,18.56-7.92,25-16.45,8.4-11.08,10.1-23.28,6.6-36.31C270.15,116.84,264.14,92,260,66.81c-2.86-17.24-4.91-34.61-7.37-51.91C252,10.44,251.11,6,250.42,1.56a4.68,4.68,0,0,1,.3-1.56,5.56,5.56,0,0,1,1.52.61A16.81,16.81,0,0,1,254.64,3c24.56,31.13,48.93,62.41,71.13,95.31,1.25,1.86,2.32,3.86,3.68,5.64a10.44,10.44,0,0,0,2.64,1.84,13.28,13.28,0,0,0,1.44-2.9c1.52-7,2.58-14,4.44-20.89,5.49-20.29,11.3-40.49,17-60.73,1.22-4.34,2.26-8.73,3.54-13a18.76,18.76,0,0,1,2-3.61,19.8,19.8,0,0,1,2,3.82c1.31,4.69,2.32,9.47,3.62,14.17,5.38,19.55,10.91,39.06,16.19,58.63,2,7.25,3.36,14.64,5.12,22a11.17,11.17,0,0,0,1.6,2.78,11.85,11.85,0,0,0,2.54-2c2.29-3.21,4.31-6.62,6.65-9.79q27.28-37,54.65-73.88c4.48-6,9.12-11.94,13.76-17.86A12,12,0,0,1,469.17.53a10.82,10.82,0,0,1,.46,3c-1.82,14.35-3.34,28.75-5.69,43q-5,30.56-11.17,61c-2.27,11.21-5.72,22.18-8.56,33.28-4.34,17-.36,31.6,12.78,43.48,5,4.5,11,7.12,17.22,9.28,24.71,8.55,48.52,19.06,71,32.56C608.43,264.22,656,316.58,687.3,383.58A355.46,355.46,0,0,1,718,492.13c4,33.28,2.84,66.42-2.13,99.54a352.52,352.52,0,0,1-34.23,106.89,346.65,346.65,0,0,1-50.19,73.33,355.29,355.29,0,0,1-106.59,82.82c-9.18,4.65-18.69,8.69-28.11,12.87-2.8,1.24-4.27,2.7-4.68,6.1-2.89,23.72-8.88,46.85-13.47,70.26-2.16,11-2.89,22.35-4.13,33.55-1.31,11.77-2.45,23.56-3.67,35.35a1.41,1.41,0,0,1-.06.55c-.72,1.41-1.22,3.74-2.25,4-2.47.65-2.95-1.81-3.25-3.61-1.41-8.52-2.8-17-4-25.6-1.77-12.84-3.35-25.71-5-38.56-1.73-13.23-3.49-26.45-5.19-39.68-1-7.46-1.9-14.92-2.72-22.39-.3-2.74-1.69-3.55-4.17-3.08l-1.66.35c-7.81,1.53-8,1.68-8.53,9.78-.87,13.51-1.44,27-2.56,40.53-.93,11.05-2.42,22.05-3.77,33.05q-3.08,24.9-6.33,49.77c-1.1,8.39-2.4,16.75-3.62,25.12a3.67,3.67,0,0,1-.44,1.61c-.51.72-1.17,1.74-1.86,1.81s-1.6-1-1.8-1.69a28.89,28.89,0,0,1-.88-5.56c-1.58-22.31-2.89-44.65-4.74-67-1.17-14-3.24-28-4.69-42-1.12-10.84-2-21.7-2.79-32.57-.41-5.49-.67-5.89-6-5.09-9.32,1.41-9.19,1.43-10.45,10.67-1.83,13.4-3.88,26.77-5.81,40.16q-3.81,26.5-7.6,53c-2.53,17.67-5.11,35.34-7.6,53-.41,3-.36,6-.78,9-.12.85-1.13,1.58-1.74,2.37-.66-.78-1.77-1.49-1.9-2.35-.85-5.76-1.48-11.56-2.21-17.34-2.19-17.15-4.48-34.28-6.56-51.44-1.77-14.55-3.18-29.14-5-43.68-1.49-12.12-3.31-24.19-5-36.29-.56-4.09-.92-8.22-1.66-12.28-.23-1.28-1.25-3.26-2.18-3.43a56.73,56.73,0,0,0-11.12-.83c-.61,0-1.57,2.26-1.71,3.55-.86,7.47-1.35,15-2.27,22.44-1.94,15.66-4.14,31.29-6.08,47-1.48,11.93-2.89,23.88-4,35.85-1.29,13.48-2.23,27-3.32,40.48a5,5,0,0,1-.13,1.67,24.09,24.09,0,0,1-1.65,2.63c-.79-.87-2.12-1.64-2.29-2.61-1.28-7.6-2.49-15.21-3.43-22.86-1.9-15.48-3.75-31-5.37-46.47-1.47-14-2.78-28.06-3.85-42.11-1-12.94-1.47-25.91-2.41-38.85-.17-2.27-.86-5.63-2.38-6.43-2.82-1.49-6.42-1.66-9.72-1.89-.61,0-1.8,2.15-2,3.41-1.09,7.06-1.88,14.16-2.91,21.23q-5.43,37.08-10.95,74.15c-1.49,10-3.17,20-4.77,30a6.11,6.11,0,0,1-.4,2.2,29,29,0,0,1-2.35,3c-.9-1-2.44-2-2.6-3.11-.92-6.51-1.87-13-2.16-19.61A434.07,434.07,0,0,0,236,914.46c-3.16-13.11-4.83-26.59-6.65-40-.47-3.42-1.69-4.84-4.6-6a358.36,358.36,0,0,1-48.41-23.89c-41.84-25.22-77.79-57-106.67-96.62A355,355,0,0,1,.93,554.21C.6,548,.19,541.82,0,538.62ZM362.18,882.48a323.66,323.66,0,0,0,45.09-3.11,323.82,323.82,0,0,0,61.89-14.12c51.81-17.58,97.78-44.84,136.45-84,14.83-15,28.73-30.75,40.78-48.12A346.66,346.66,0,0,0,699.1,614.46a267.42,267.42,0,0,0,6.95-41.65c1.1-14,2.48-28.14,2.37-42.21a336.74,336.74,0,0,0-7.17-65.5c-9.69-47-28.09-90.27-55.86-129.4-22-31.05-48.09-58.2-78.94-80.65-26-18.89-53.66-34.45-83.91-45.39-9-3.25-18.14-6.39-26.42-11-17.16-9.56-30-32.79-24.56-56.69,2.52-11,5.74-21.8,8.06-32.82,4.18-19.84,7.95-39.76,11.76-59.67.43-2.21.05-4.58,0-6.87a50.88,50.88,0,0,0-4.54,4.76q-18.35,25-36.55,50.12C399.09,113,390,129.4,385.85,148.4c-2.09,9.5-5.61,18.7-8.54,28-.18.55-.87.93-1.32,1.39a10.65,10.65,0,0,1-.13-1.59c1.29-14.6,2.7-29.19,3.83-43.8a39.32,39.32,0,0,0-.61-11.21c-3.17-14.48-6.62-28.91-10.11-43.32-2.13-8.75-4.49-17.45-6.87-26.14-.25-.9-1.34-1.55-2-2.32a19.74,19.74,0,0,0-1.48,2.32,13,13,0,0,0-.54,2.19c-4.79,18.55-9.46,37.14-14.44,55.64-2.94,10.93-2.91,21.91-1.72,33s2.26,22.43,3.37,33.65a4.81,4.81,0,0,1-.1,1.06c-.41-.22-1-.33-1.19-.67a19,19,0,0,1-1.27-3.13c-2.91-9.31-6.39-18.49-8.55-28-3.84-16.88-12-31.5-21.92-45.32-10.43-14.48-20.81-29-31.29-43.46-3.31-4.56-6.85-9-10.35-13.36-.41-.52-1.26-.7-1.9-1-.23.79-.77,1.64-.64,2.37.62,3.51,1.54,7,2.14,10.49,4.22,24.83,9.3,49.47,15.85,73.8,1.86,6.87,3.9,13.86,4.41,20.9,1.71,23.82-12.62,44.85-35.34,53.39-13.33,5-26.74,9.9-39.73,15.71-33.53,15-63.54,35.47-90.68,60.2a341.5,341.5,0,0,0-59,70.84,349.46,349.46,0,0,0-38.11,83.3c-9.37,30.21-14.1,61.18-15.26,92.67C11,560.28,15.52,594,24.54,627A347.86,347.86,0,0,0,69.88,727.17c18.59,28.23,41.78,52.23,66.89,74.46,18.52,16.38,39.38,29.49,61.16,41C249.34,869.87,304.29,882.8,362.18,882.48Z"/><path class="cls-1" d="M83,533c-.32-39.71,8.6-79.2,26.25-116.64,11.61-24.62,26.95-46.82,45.11-67.15,25.57-28.63,56.11-50.39,90.76-66.41A264.45,264.45,0,0,1,320,261.06c14.52-2,29.07-3.54,43.76-3.2,34.83.79,68.53,7.19,100.91,20.29a275.53,275.53,0,0,1,82.21,51.33,281.32,281.32,0,0,1,51.47,62.42A267.25,267.25,0,0,1,633.93,488a283,283,0,0,1,1,86.53,269.22,269.22,0,0,1-32,95.6A278.19,278.19,0,0,1,447.22,798c-24.14,7.92-48.88,13.13-74.49,13.11-6.75,0-13.51.88-20.25.71a274.78,274.78,0,0,1-115.87-28.76A278.72,278.72,0,0,1,186,750.69a269.29,269.29,0,0,1-59.48-66.52,281.48,281.48,0,0,1-32-69.89A269.44,269.44,0,0,1,83,533ZM362.19,799.94c141.28-.27,263.25-115.4,263.46-264.83C625.86,386.36,504.38,268.81,358,270,212.62,271.23,94.39,389.47,94.87,536.66,95.35,683.28,216.21,801,362.19,799.94Z"/><path class="cls-1" d="M617.19,346.16c-3.85-1.11-4.44.29-4.69,2.88C611.41,360.37,598,366.64,589,359.7c-4.68-3.6-8.43-8.46-12.42-12.91-2.62-2.93-4.93-6.14-7.35-9.25s-2.33-3.55.48-5.9c8.33-7,16.74-13.86,25.1-20.8a84.75,84.75,0,0,0,6.77-5.89c1.47-1.52,2.61-2,4.05-.25,6.12,7.33,12.56,14.43,18.24,22.08,4.53,6.09,3.49,11.87-2.19,17C620.25,345.06,618.24,345.62,617.19,346.16Zm-17.31-1.67c.08-2.91-4.48-10.05-7.35-10.68a5.55,5.55,0,0,0-4.31,1.52c-1,1-2.13,3.44-1.62,4.22a33.62,33.62,0,0,0,7.15,8.46C596.67,350.26,599.77,348.18,599.88,344.49Zm2.68-21.66c-.44.56-1.68,1.51-2,2.68-.87,3.6,4.29,10.06,7.9,10.05,2,0,3.62-.84,3.81-3.17C612.59,329,606.85,322.72,602.56,322.83Z"/><path class="cls-1" d="M367.84,815.41c17-.53,27.93,18.61,24.67,34.89-.87,4.35-2.9,8.48-4.62,12.62-.87,2.1-1.56,3.8,1,5.19a3.72,3.72,0,0,1,1.75,2.1c.39,1.71.9,3.68.39,5.22s-5.62,1.35-6.58-.28c-2.68-4.53-6.08-3.49-10.16-2.53a38.23,38.23,0,0,1-12.8,1c-15.44-1.8-26.59-16.88-23.91-32.45a40.22,40.22,0,0,1,5-14.14C347.89,818.57,356.29,815.25,367.84,815.41Zm13.75,30.86c-1-4.19-1.56-8.3-2.93-12.12-1.91-5.3-6-8.78-11.6-9.38a14.33,14.33,0,0,0-13.67,6.05c-4.33,5.87-4.37,12.41-3.39,19.29,1.08,7.63,5.59,11.94,12.46,14.35,2,.71,4.33,1.37,5.65-.6.66-1-.19-3-.39-4.52,0-.37-.29-.73-.26-1.08.13-1.25-.07-3.17.61-3.58,1.09-.66,2.81-.53,4.2-.32.79.13,1.55,1,2.14,1.69,1.89,2.21,3.53,1.15,4.33-.72A87.81,87.81,0,0,0,381.59,846.27Z"/><path class="cls-1" d="M25.19,501.2c1.32-7.58,2.59-15.17,4-22.74a20.37,20.37,0,0,1,1.86-5.28c3.43-6.71,9.45-9,16.51-6.31A14.48,14.48,0,0,1,52,469.22c3.07,2.68,5.38,3.84,10,1.67,4.43-2.06,10.32-1,15.57-1.29,1.74-.08,2.37,1,2.09,2.57a78.41,78.41,0,0,1-2.15,9.89,4.5,4.5,0,0,1-3.31,2.23c-2.2.2-4.46-.39-6.71-.52-4.91-.28-6.52.7-7.74,5.32-2.17,8.19-2.82,10.08,6.81,10.67,2.74.17,6.24.07,7.89,1.66,1.2,1.14,0,4.89-.27,7.46-.6,6.5-.59,6.31-6.95,5.42C55,512.56,42.72,511,30.43,509.5c-5.62-.69-5.64-.52-5-6,.09-.75.17-1.5.25-2.25Zm24.3-12.36c.19-6.4-2.08-8.93-6.92-7.73s-3.17,5.83-4.26,8.94c-.84,2.4-.52,4.79,2.33,6.16,5.12,2.46,7.81,1.14,8.62-4.43C49.42,490.66,49.44,489.53,49.49,488.84Z"/><path class="cls-1" d="M116.78,382.08c-1.52-.87-2.71-1.44-3.77-2.19q-16.08-11.36-32.12-22.77c-3.86-2.76-4-3.37-1.3-7.18q9.16-12.82,18.58-25.46c2.82-3.79,3.34-3.72,7.1-.72.74.59,1.46,1.19,2.15,1.82,3.11,2.85,3,2.94.37,6.29-3.15,4-6.18,8-9.19,12.09a7.83,7.83,0,0,0-1.81,3.43,5.35,5.35,0,0,0,1,3.94c1.4,1.41,3.19.77,4.37-.75,3.21-4.15,6.26-8.43,9.56-12.51,1.07-1.32,3.42-3.36,4-3a29.19,29.19,0,0,1,6.61,5.71c.37.4-.65,2.35-1.35,3.36-2.8,4-5.83,7.83-8.54,11.88-1.15,1.73-3.15,3.73-.91,6,1.43,1.44,4.14.78,6.3-1.88,2.94-3.63,5.54-7.56,8.27-11.36,1-1.38,1.85-2.84,2.93-4.13,1.34-1.6,2.92-2.35,4.81-.67a9,9,0,0,0,1.43.88c5.62,3.36,5.7,4.64,1.74,10-6,8.14-11.76,16.46-17.67,24.67A23.33,23.33,0,0,1,116.78,382.08Z"/><path class="cls-1" d="M639.16,425.65c-10.72.13-17.54-5.69-21.69-15-4.44-10-2.79-19.09,4.57-26.5,6.77-6.8,15.05-10,24.58-8.75,16.21,2.12,27.66,23.41,16.76,38.23C657.41,421.75,649.4,426,639.16,425.65Zm-1.11-13.92c4.11,0,10.6-2.84,13.7-6.08a9.73,9.73,0,0,0,1.89-11.38A9.15,9.15,0,0,0,644,389a23,23,0,0,0-14,7.46c-2.67,3-3.19,6.22-1.25,9.79S633.47,411.91,638.05,411.73Z"/><path class="cls-1" d="M222.68,281.53c-13.7.25-25.14-12-25.41-27-.29-15.69,15.29-24.88,25.6-24.93,15.77-.07,25.11,14.31,25.66,27.67C249.08,270.43,237.18,281.26,222.68,281.53Zm2-12.14c4.54.11,9.76-4.54,9.62-9.26-.19-6.19-2.3-11.81-7.43-15.71-5.41-4.11-11-2.51-14.59,3.36C208.27,254.49,217,269.52,224.72,269.39Z"/><path class="cls-1" d="M64.32,463.52c-13.7.33-23-8.88-25.36-17.54C35,431.71,44.4,413.12,62.75,413.59c9.31.24,17,3.62,22.79,11.28A20.76,20.76,0,0,1,89.1,444a45.2,45.2,0,0,1-5.79,12.07C78.83,462.8,71.54,463.29,64.32,463.52ZM66.25,450c4-.26,7.67-1.52,10-5.06,2.21-3.32,1.63-6.77-.27-10.07-3.66-6.36-16-9.21-22-5.12-4.47,3-5.44,7.56-2.51,12.09C55,447.09,60.16,449.23,66.25,450Z"/><path class="cls-1" d="M560.85,804.56a95.4,95.4,0,0,1-9.87-3.65c-2.65-1.31-2.94-3.14-1.12-5.56a24.68,24.68,0,0,1,4.48-4.17,3,3,0,0,1,4.46.28c3.44,3.4,7.24,2.38,10.88.43,4.23-2.26,8.08-5.08,8.66-10.35.54-4.91-3.53-8-8.58-6.34-3.74,1.2-7.26,3-11,4.4-3.33,1.22-6.8,2.06-10.14,3.24-9.8,3.46-19.88-7.7-16.1-18.79,3.17-9.29,10-14.82,18.9-17.94,4.6-1.62,9.23-.57,13.62,1.62,3.26,1.64,4.31,5.73.3,7.85-2.91,1.53-5.32,2.73-8.88,1.19-4.52-2-12.26,1.9-14.16,6.5-1,2.33-1,4.75.78,6.89a5.51,5.51,0,0,0,7.07,1.59c3.95-1.75,7.85-3.6,11.83-5.25,2.59-1.07,5.28-1.92,8-2.77,5.81-1.87,10.74-.37,14.72,4.19s5.51,9.84,3.79,15.71C585.47,794,571.82,804,560.85,804.56Z"/><path class="cls-1" d="M163,807.52c-11.44-.17-24.74-11.87-26.4-23.13-.62-4.21.92-7.84,3.12-11.12,3.76-5.6,7.79-11,11.8-16.45,3-4.08,6.14-8,9.19-12.07,2.32-3.07,3.39-3.3,6.51-1.26.46.31.88.69,1.32,1,4.35,3.47,4.42,4.21,1.07,8.57-6.4,8.33-12.91,16.58-19.11,25.06-4.37,6-4.05,7.57,1.14,13.05,7.62,8,12.26,8.06,19.29-.61,6.13-7.56,11.84-15.48,17.6-23.34,2.93-4,3.49-4.28,7.52-1.42a30.49,30.49,0,0,1,3.4,2.94,2.64,2.64,0,0,1,.22,4c-7.89,9.77-15.65,19.65-23.7,29.28A14.81,14.81,0,0,1,163,807.52Z"/><path class="cls-1" d="M49.39,561.07c-6.75,0-13.5.07-20.25,0-4.19,0-4.53-.5-4.64-4.45-.19-6.76-.62-13.51-.54-20.26s2-12.49,8.19-16.3c10.08-6.23,23-.88,25.2,10.72a54.52,54.52,0,0,1,.9,8.37c.29,7.43.61,7.77,7.78,6.88,1.3-.17,2.61-.24,3.92-.36,2.29-.22,3.52.84,3.77,3.1,0,.19,0,.38.08.56,1.52,10.06.81,10.9-9.24,10.93H49.39ZM35.7,539.14c0,.84,0,1.4,0,2,.19,4.24,2.13,6,6.41,5.72s6.17-2.42,5.59-6.55a18.24,18.24,0,0,0-2-6.32c-1.08-1.9-2.76-3.61-5.43-3.09s-3.68,2.35-4.15,4.68C35.87,536.81,35.81,538.13,35.7,539.14Z"/><path class="cls-1" d="M499.39,282.6c-17.2.22-29.9-17.83-22.54-33.77a38.86,38.86,0,0,1,5.2-8.62c10.21-12.23,26.59-12.57,37.4-.87,4.93,5.33,6.76,11.53,4.84,18.74-.67,2.54-1.86,2.89-4,1.81-4.59-2.29-8.69-4.6-10.15-10.38a8.1,8.1,0,0,0-14.16-3.14A44.75,44.75,0,0,0,489.28,258c-1.63,4-.2,7.77,3.1,10.64s5.83,3,9,.2,6-2.55,9.2-.71c1.3.74,2.69,1.34,4,2.06,3.83,2.13,3.83,2.92.6,6.18A20.05,20.05,0,0,1,499.39,282.6Z"/><path class="cls-1" d="M168.27,315.86c-.76,12.06-12.51,22.55-25,22.53-15.73,0-26.51-15.09-26.88-26.24A18.44,18.44,0,0,1,118,304a32.76,32.76,0,0,1,13.5-14.74c5.85-3.35,15-2.7,20.31,1.3,1.42,1.07,1.52,2.13.38,3.24a81.83,81.83,0,0,1-7.54,6.78,5,5,0,0,1-4,.41c-4.2-1.5-6.82.83-9.41,3.39s-2,5.53-.74,8.39c2.68,6,7.47,9.8,13.29,12.4,3,1.35,5.44-.09,7.69-2s3.92-4.27,2.59-7.37c-1.59-3.75-.7-6.44,2.61-8.69,1.2-.82,2-2.26,3-3.36,2.68-2.88,4.47-2.75,5.67.76C166.58,308.19,167.31,312.07,168.27,315.86Z"/><path class="cls-1" d="M647.27,556.06c0-1.32.06-2.64,0-3.95-.13-2.36.61-3.93,3.16-4.49,2.79-.61,3.85-2.59,3.86-5.4a57.74,57.74,0,0,1,.57-7.3c.41-3.11-.9-5.33-3.7-6.14-3.24-.94-3.93-2.93-3.81-5.9.11-2.81-.08-5.64-.22-8.45-.08-1.66.62-2,2-1.41,3.65,1.47,7.28,3,11,4.37,10.35,3.88,20.72,7.69,31.08,11.57,5.15,1.93,6,3.14,6,8.15,0,7.61-.47,8.46-6,10.43-12.89,4.58-25.8,9.08-38.7,13.63-5.76,2-5.64,1.68-5.21-4,0-.37,0-.75,0-1.12Zm21.57-13.71a59,59,0,0,0,6.81-2.44c2.09-1,2.09-2.79,0-3.65a34.25,34.25,0,0,0-8-2.2c-2.62-.38-3.86,1.18-3.92,4.12S664.87,542.33,668.84,542.35Z"/><path class="cls-1" d="M63.41,388.65c4.58.38,7.75.78,10.93.84,2,0,2.76-1.16,1.48-2.95-2.5-3.51-5.13-6.94-7.62-10.46-.73-1-1.9-2.6-1.57-3.36,1.84-4.25,4.05-8.35,6.27-12.42a2.64,2.64,0,0,1,2.17.38c1.12,1.5,1.9,3.23,2.89,4.83,3.84,6.24,7.73,12.44,11.56,18.68,2.93,4.79,7.79,6.91,12.55,9.11,6.92,3.19,7,3.15,3.67,9.77-.42.85-.84,1.69-1.28,2.52-2.21,4.14-2.53,4.44-6.33,2.18A41.81,41.81,0,0,0,73.34,402c-6.17.4-12.36.54-18.54.86-4.36.23-4.48.12-2.66-3.63.74-1.52,1.54-3,2.28-4.53C56.55,390.38,58.93,386.52,63.41,388.65Z"/><path class="cls-1" d="M658.35,479.92c-3.43,1-6.66,1.88-9.91,2.74-5.5,1.46-6.08,1.07-6.94-4.52,0-.19,0-.38-.06-.56-1.31-8.72-1.25-8.41,7.22-10a27.34,27.34,0,0,0,11.23-4.64c6.87-5.18,13.17-11.13,19.68-16.79.85-.74,1.55-1.64,2.39-2.39,1.32-1.19,2.59-.88,3,.75a77.84,77.84,0,0,1,2.34,12.1c.11,1.37-1.58,3.3-2.94,4.29-2.72,2-5.82,3.4-8.66,5.22a15.32,15.32,0,0,0-2.54,2.66c1,.74,1.93,1.79,3.07,2.16a57.71,57.71,0,0,0,9.73,2.65c4.24.61,6.22,3,7,6.92.35,1.84.68,3.69,1,5.54.68,4.32.17,4.75-3.88,3.43-7.48-2.44-15-4.89-22.47-7.22C664.5,481.32,661.38,480.68,658.35,479.92Z"/><path class="cls-1" d="M156.16,283.77a16.46,16.46,0,0,1-2.07-1.22c-6.89-5.65-6.92-7.75.25-13,8.31-6.11,16.79-12,25.13-18.07,2.13-1.54,3.8-1.25,5.3.69a22.65,22.65,0,0,1,2.78,4.2c1.07,2.31.69,4.41-1.72,5.79-1.62.94-3.25,1.86-4.85,2.83-3.13,1.89-3.21,2.1-1,5.11,4.71,6.55,9.64,12.95,14.18,19.61,6.8,10,6.57,6.71-2.44,13.65-4.05,3.12-4.22,2.79-7.23-1.58-5-7.26-10-14.5-15.24-21.62-3.21-4.39-4.41-4.34-8.41-.55C159.31,281,157.77,282.32,156.16,283.77Z"/><path class="cls-1" d="M544.5,285.68a48.42,48.42,0,0,1,4.29,2.38c3.23,2.23,6.34,4.61,9.57,6.82,2.3,1.58,2.75,3.41,1.24,5.74-.51.78-1,1.59-1.55,2.34-2.41,3.28-3.16,3.53-6.34,1.26-4-2.83-7.76-5.88-11.6-8.87-1.58-1.23-2-2.64-.46-4.28S542.82,287.55,544.5,285.68Z"/><path class="cls-1" d="M457.62,653c-7.89,0-15.78-.06-23.67,0a10.05,10.05,0,0,1-7-2.85c-4.26-3.67-8.77-7.06-13.22-10.52-3-2.33-6.54-2.58-10.16-2.58l-74.4,0a29.49,29.49,0,0,1-4.51,0c-12-1.88-21.07,3.71-29.13,11.57A14.48,14.48,0,0,1,284.43,653c-15-.18-30.07-.06-45.1,0a6.57,6.57,0,0,1-5.5-2.18c-20.76-24.16-40-49.32-52.54-79a126.31,126.31,0,0,1-8.94-37.09c-2.39-24.72-.4-49.22,3.21-73.65,1.76-11.89,4-23.71,5.77-35.6.44-3,1.38-4.32,4.54-4.28,11.27.15,22.55.07,33.82.17,3.72,0,3.87.29,3.28,3.32-3.59,18.27.68,34.85,11.68,49.47,27.62,36.69,84.38,34.23,107.12-8.95,18-34.13.87-73.52-31.66-87.27a65.13,65.13,0,0,0-31.38-4.89c-17,1.45-34,3.21-51,4.86-10.46,1-20.92,2.13-31.38,3.12-3,.29-3.45-.19-2.4-3a80.82,80.82,0,0,1,4.7-10.84,10.37,10.37,0,0,1,4.42-4.05c23.92-11.37,48.31-21.59,73.6-29.57a300.33,300.33,0,0,1,53.16-12.06,255.93,255.93,0,0,1,50.05-.95A260.63,260.63,0,0,1,434,330.5a540.26,540.26,0,0,1,65.9,24.37c5.49,2.41,11,4.84,16.52,7.14a11.48,11.48,0,0,1,7.14,7.41c.91,2.86,2.23,5.59,3.19,8.43,1.17,3.49.67,4.14-2.84,3.74-10.63-1.2-21.24-2.62-31.88-3.69-17.37-1.75-34.74-3.51-52.14-4.87-30.24-2.37-57.75,17.59-65.89,47.3-8.92,32.61,10.64,67.26,44,76.89,29.86,8.62,58.58-6,71.48-27.62,8.25-13.83,11.66-28.78,8.21-44.87-.72-3.33-.54-3.51,2.71-3.49,10.89.05,21.79.05,32.68.07,5.32,0,5.73.31,6.54,5.49C542.11,443,545.15,459,547,475.27c2.7,24.14,3.92,48.41-.37,72.53-3.58,20.13-12.74,38-23.39,55.2-10.42,16.83-22.64,32.31-35.57,47.27-2,2.34-4.22,2.81-6.91,2.81H457.62Z"/><path class="cls-1" d="M485.92,686.68c-18.22,0-36.44.07-54.65-.06-4,0-7.24.82-10.21,3.65a82.9,82.9,0,0,1-10.47,8.52,13.65,13.65,0,0,1-6.67,2.27c-6.74.32-13.51.22-20.27.22-21.23,0-42.45-.07-63.67,0-4.5,0-8.57-.63-11.81-4.1a27.48,27.48,0,0,0-2.71-2c-12.35-10.29-8.17-8.38-24.27-8.44-33.05-.12-66.11-.08-99.16-.14-8.37,0-8.37-.09-8.39-8.34,0-3.19,0-6.39,0-9.59,0-4.09,0-4.15,4.35-4.15q48.18,0,96.34.07c4.32,0,8.65-.25,13,0A14.59,14.59,0,0,0,298,660.69c3.72-3.17,7.69-6,11.38-9.22a11.77,11.77,0,0,1,8.21-3q42.54.07,85.07,0a13.67,13.67,0,0,1,9.25,3.4c3.58,3,7.53,5.65,10.9,8.9,3.13,3,6.62,3.8,10.75,3.79,23.09-.06,46.19,0,69.29,0,13.15,0,26.29-.07,39.44-.07,4.71,0,4.72.13,4.68,4.71-.06,4.89-.08,9.78,0,14.66,0,1.92-.6,2.83-2.52,2.8-.94,0-1.88,0-2.82,0H485.92Z"/><path class="cls-1" d="M457.28,740.45c0,6,0,12,0,18,0,1.71.31,3.74-1.94,4a16.87,16.87,0,0,1-6-.38c-.5-.12-.85-1.91-.87-2.95-.14-6.2-.18-12.4-.24-18.61a27.1,27.1,0,0,0,0-3.37,11,11,0,0,0-.93-2.44c-.67.74-1.62,1.38-2,2.25-1.94,4.88-3.77,9.81-5.57,14.74-.9,2.47-1.66,5-2.48,7.49-.6,1.82-1.2,3.71-3.64,3.59s-4.36-1.07-5.23-3.53c-1.56-4.42-3.07-8.85-4.68-13.24-1.28-3.52-2.62-7-4.06-10.47-.21-.5-1.12-.72-1.71-1.06a6.16,6.16,0,0,0-.64,1.88c.1,7.33.3,14.65.4,22,0,3.68-.68,4.44-3.9,4.62s-4.6-.93-4.76-4.61c-.19-4.32-.23-8.65-.22-13,0-7.9.17-15.79.15-23.69,0-2.39.76-3.38,3.27-3.25,11.77.61,9.7-2.4,13.57,10.13,1.38,4.48,2.84,8.94,4.34,13.39A12.64,12.64,0,0,0,432,745.5c1,1.39,2.28,1.27,3.07-.29A24.14,24.14,0,0,0,436.7,741c1.76-5.94,3.47-11.89,5.18-17.85,1.21-4.2,1.51-4.63,5.73-4.68,10.89-.11,8.69-.77,8.87,8.41.09,4.51,0,9,0,13.53Z"/><path class="cls-1" d="M310.12,739.83c.27-6,.59-12,.77-18,.06-2.32.83-3.24,3.31-3.33,4.36-.18,7,2,9.07,5.45,3.23,5.5,6.5,11,9.75,16.47a8.72,8.72,0,0,0,1.19,1.9c1.38,1.36,2.86,2.61,4.3,3.91a35.57,35.57,0,0,0,.84-5.28c.1-6.38.08-12.77,0-19.16,0-2.89,1.65-3.4,4-3.41,3.51,0,4.44.49,4.42,3.47-.07,12.2-.15,24.41-.51,36.61-.14,4.91-2,6.07-6.46,3.89a16.28,16.28,0,0,1-6-5.6c-3.81-5.79-7.12-11.91-10.78-17.81a46.06,46.06,0,0,0-4.17-5c-2.37,1.91-1,4.47-1,6.71-.13,5.81.11,11.64,0,17.45-.06,3.93-.71,4.52-4,4.61-3.46.1-4.45-.77-4.54-4.78-.15-6,0-12,0-18Z"/><path class="cls-1" d="M259.13,734.78c0-4.14.16-8.28-.06-12.4-.16-3,1-4.15,3.9-3.86.75.08,1.5,0,2.25.06,2.46.08,3.61.9,3.43,3.8-.41,6.36-.39,12.75-.43,19.13,0,2.24.47,4.48.49,6.72,0,6.2,4.11,8.18,10.45,8.26,5.33.07,8.32-3.3,8.43-9.18.16-8.26,0-16.53,0-24.79,0-3.74.32-3.87,4.95-3.92,4.07,0,4.51.2,4.56,3.77.1,8.08.31,16.16,0,24.22-.41,10.84-6.22,16.33-17.08,16.76q-2.25.09-4.5,0c-9.91-.29-15.32-5.22-16.09-15.09-.35-4.48-.06-9-.06-13.51Z"/><path class="cls-1" d="M362.42,762.52c-4,.1-4.83-.74-3.78-3.55,4.52-12.11,9.16-24.16,13.8-36.22,1.09-2.85,3-4.67,6.31-4.61s5.05,2.07,6.12,4.88q5.28,13.92,10.53,27.86c1.05,2.8,2.18,5.58,3.13,8.42.8,2.39-.5,3.64-2.72,3.8-2.55.18-4.87-.47-6.07-3.09-.39-.84-.67-1.74-1-2.61-2.06-5.14-2.06-5.14-7.8-5.18h-3.37c-7.21,0-7.35-.07-9.89,6.48C366.49,761.72,364.43,762.57,362.42,762.52ZM379,746.76a9.32,9.32,0,0,0,3.39-.65c.86-.45,1.88-2.09,1.67-2.87a76,76,0,0,0-3.73-10.59c-1-2.18-2.65-2.15-3.64,0a59.68,59.68,0,0,0-2.94,8.5C372.32,746.07,372.88,746.73,379,746.76Z"/></g></g></svg>