<svg width="55" height="69" viewBox="0 0 55 69" fill="none" xmlns="http://www.w3.org/2000/svg">
<path d="M44.6971 0C46.6093 0.572906 47.0399 1.97939 45.9747 3.54342C44.8688 5.1471 43.5538 6.59243 42.0654 7.84022C39.6659 9.86544 39.2948 11.65 41.9549 13.7412C43.1645 14.6922 44.1758 15.9125 45.224 17.0611C46.2297 18.1611 47.1532 19.4387 45.7282 20.785C44.5073 21.9308 43.3175 21.1374 42.3288 20.2121C41.1957 19.1522 40.1645 17.9749 39.0031 16.9466C37.6915 15.7549 36.5583 13.2828 34.377 15.732C32.8303 17.4507 29.5612 18.8429 32.8983 21.8821C33.8274 22.7415 34.0824 23.9675 33.0994 25.0331C31.9011 26.3222 30.683 25.7063 29.751 24.6951C26.8105 21.5184 25.6264 24.8727 23.972 26.2563C21.7963 28.0724 23.3799 29.3786 24.6858 30.6963C25.9918 32.014 27.2354 33.2744 28.4649 34.615C29.3997 35.6491 29.9776 36.8808 28.7482 38.0524C27.5187 39.224 26.3346 38.6482 25.3147 37.6944C23.802 36.2793 22.3063 34.8298 20.9012 33.3145C19.5952 31.8994 18.2893 31.5385 17.0853 33.24C16.0485 34.7066 12.989 35.4629 15.1023 38.2014C16.057 39.4331 17.4961 40.6649 16.0287 42.2346C14.329 44.045 13.04 42.2747 11.7369 41.3323C9.18734 39.4732 8.45363 42.2575 7.10236 43.2773C5.64061 44.3802 5.3375 45.6778 6.84457 47.1817C11.7095 52.0285 16.532 56.9192 21.3119 61.8538C23.2779 63.8876 24.4507 62.4267 25.7538 61.0947C33.4969 53.265 41.2401 45.4295 48.9832 37.5884C49.7874 36.7454 50.6386 35.9497 51.5327 35.2051C52.4223 34.4947 53.4308 34.3658 54.3288 35.248C55.2268 36.1303 55.1531 37.1587 54.5242 38.0925C53.924 38.9376 53.2478 39.7249 52.5044 40.4443C43.953 49.1181 35.3912 57.7833 26.819 66.4399C23.4592 69.8258 22.8728 69.8372 19.6207 66.5688C13.6717 60.5991 7.82757 54.5378 1.82193 48.6283C-0.515168 46.3366 -0.668142 44.5119 1.73695 42.1057C15.0287 28.7943 28.1957 15.394 41.4138 2.03668C42.3147 1.12576 43.1588 0.0830714 44.6971 0Z" fill="#E1DEE3"/>
</svg>
